# File created by Blade
# Date/Time:  Wed Sep 24 19:53:44 2014
# Frame Rate: 120.000 fps
#------------------------------------------------------
:FULLY-SPECIFIED
:DEGREES
2365
root -5.994646 32.825242 -3.594612 8.204283 11.454586 -0.097564
Spine -19.528176 11.829680 -1.895429
Head -2.865843 -5.858866 21.411995
LeftShoulder -13.364742 11.845595 19.068858
LeftArm 147.189076 -75.328758 -187.649073
LeftForeArm -62.335336 -0.000000 103.881414
LeftHand -20.785081 -0.000000 17.053214
LeftHandThumb1 -26.253704 0.000000 33.147579
RightShoulder -18.649728 12.298511 -15.177982
RightArm -13.737246 -11.438765 75.025884
RightForeArm -20.986967 -0.000000 18.592728
RightHand -7.475280 -0.000000 9.502677
RightHandThumb1 -24.326973 -0.000000 -32.862282
LeftUpLeg -2.043554 2.189689 4.779906
LeftLeg -2.527002 -0.000000 0.000000
LeftFoot -8.178892 1.133475 -18.700289
LeftToeBase 11.489956 -0.000000 -0.000000
RightUpLeg -1.114204 -12.782119 -3.218274
RightLeg 2.218582 -0.000000 -0.000000
RightFoot -8.195218 -8.396201 -11.829539
RightToeBase -0.645803 -0.000000 0.000000
2366
root -5.995844 32.824181 -3.587548 8.147245 11.616251 -0.057818
Spine -19.510169 11.648369 -1.897634
Head -2.856886 -5.791232 21.400808
LeftShoulder -13.313688 11.831925 19.094247
LeftArm 147.081250 -75.343663 -187.559336
LeftForeArm -62.214226 -0.000000 104.172109
LeftHand -20.800712 0.000000 16.960555
LeftHandThumb1 -26.253704 0.000000 33.147579
RightShoulder -18.617213 12.308928 -15.152452
RightArm -13.678001 -11.398030 74.990558
RightForeArm -21.035325 -0.000000 18.803866
RightHand -7.464901 -0.000000 9.662994
RightHandThumb1 -24.326973 -0.000000 -32.862282
LeftUpLeg -1.976583 2.083134 4.770928
LeftLeg -2.569583 -0.000000 0.000000
LeftFoot -8.117680 1.061158 -18.753992
LeftToeBase 11.567728 -0.000000 -0.000000
RightUpLeg -1.041322 -12.758101 -3.251707
RightLeg 2.289923 -0.000000 -0.000000
RightFoot -8.218885 -8.594213 -11.807133
RightToeBase -0.690405 -0.000000 0.000000
2367
root -5.998763 32.822964 -3.580599 8.092478 11.784161 -0.052489
Spine -19.494736 11.458740 -1.849158
Head -2.852562 -5.746400 21.361376
LeftShoulder -13.270497 11.754486 19.133860
LeftArm 147.011938 -75.404362 -187.477432
LeftForeArm -62.065038 0.000000 104.428562
LeftHand -20.751166 -0.000000 16.988684
LeftHandThumb1 -26.253704 0.000000 33.147579
RightShoulder -18.604761 12.326250 -15.138284
RightArm -13.619941 -11.352820 74.945739
RightForeArm -21.166240 -0.000000 19.020591
RightHand -7.562509 0.000000 9.138300
RightHandThumb1 -24.326973 -0.000000 -32.862282
LeftUpLeg -1.933530 2.028723 4.792516
LeftLeg -2.587414 -0.000000 0.000000
LeftFoot -8.070384 0.960857 -18.762513
LeftToeBase 11.513931 -0.000000 -0.000000
RightUpLeg -0.960270 -12.809593 -3.246413
RightLeg 2.321334 -0.000000 -0.000000
RightFoot -8.234445 -8.709451 -11.809254
RightToeBase -0.656892 -0.000000 0.000000
2368
root -6.005194 32.822311 -3.573428 8.037070 11.944563 -0.055165
Spine -19.480683 11.263620 -1.812125
Head -2.848602 -5.705515 21.367212
LeftShoulder -13.223526 11.717777 19.204460
LeftArm 146.993394 -75.422054 -187.434424
LeftForeArm -61.901274 0.000000 104.644945
LeftHand -20.720235 -0.000000 17.029352
LeftHandThumb1 -26.253704 0.000000 33.147579
RightShoulder -18.571086 12.328394 -15.083838
RightArm -13.561582 -11.213582 74.870734
RightForeArm -21.204534 -0.000000 19.289744
RightHand -7.533620 -0.000000 9.444301
RightHandThumb1 -24.326973 -0.000000 -32.862282
LeftUpLeg -1.905038 2.006782 4.828807
LeftLeg -2.560994 -0.000000 0.000000
LeftFoot -8.018736 0.812748 -18.705223
LeftToeBase 11.433207 -0.000000 -0.000000
RightUpLeg -0.912418 -12.923890 -3.227271
RightLeg 2.416968 -0.000000 -0.000000
RightFoot -8.289342 -8.751234 -11.789182
RightToeBase -0.661492 -0.000000 0.000000
